# xmcd
#
# Track frame offsets: 
#        150
#        11720
#        25913
#        34533
#        46330
#        57417
#        67057
#        79174
#        107438
#        118155
#        127862
#
# Disc length: 1872 seconds
#
# Revision: 0
# Processed by: cddbd v1.5.2PL0 Copyright (c) Steve Scherf et al.
# Submitted via: ExactAudioCopy v0.95b3
#
DISCID=8c074e0b
DTITLE=Moby Grape  - Truly Fine Citizen (1969)  [FLAC]
DYEAR=1900
DGENRE=
TTITLE0=Changes, Circles Spinning
TTITLE1=Looper
TTITLE2=Truly Fine Citezen
TTITLE3=Beautiful Is Beautiful
TTITLE4=Love Song
TTITLE5=Right Before My Eyes
TTITLE6=Open up Your Heart
TTITLE7=Now I Know High
TTITLE8=Treat Me Bad.
TTITLE9=Tongue - Tied
TTITLE10=Love Song, Part 2
EXTD=
EXTT0=
EXTT1=
EXTT2=
EXTT3=
EXTT4=
EXTT5=
EXTT6=
EXTT7=
EXTT8=
EXTT9=
EXTT10=
PLAYORDER=
